<?xml version="1.0" encoding="UTF-8"?>
<!DOCTYPE svg PUBLIC "-//W3C//DTD SVG 1.1//EN"
  "http://www.w3.org/Graphics/SVG/1.1/DTD/svg11.dtd">
<svg xmlns:xlink="http://www.w3.org/1999/xlink" width="216pt" viewBox="0,0,216,144" xmlns="http://www.w3.org/2000/svg" version="1.1" height="144pt">
<defs/>
<g id="Layer 1">
<path stroke-linejoin="round" stroke-width="2" stroke="#000000" d="M39.2 37.68 L178.72 37.68 C179.825 37.68 180.72 38.5754 180.72 39.68L180.72 105.28 C180.72 106.385 179.825 107.28 178.72 107.28L39.2 107.28 C38.0954 107.28 37.2 106.385 37.2 105.28L37.2 39.68 C37.2 38.5754 38.0954 37.68 39.2 37.68Z" fill="none" stroke-linecap="round" opacity="1"/>
<g opacity="1">
<path stroke-linejoin="round" stroke-width="2" stroke="#000000" d="M49.4769 108.612 C48.6281 116.4 47.0512 125.686 40.4432 130.642" fill="none" stroke-linecap="round" opacity="1"/>
<path stroke-linejoin="round" stroke-width="2" stroke="#000000" d="M67.5443 108.295 C67.6879 115.371 66.3543 125.621 64.9936 131.698" fill="none" stroke-linecap="round" opacity="1"/>
<path stroke-linejoin="round" stroke-width="2" stroke="#000000" d="M84.7107 107.74 L84.6728 131.981 " fill="none" stroke-linecap="round" opacity="1"/>
</g>
<g opacity="1">
<path stroke-linejoin="round" stroke-width="2" stroke="#000000" d="M97.7809 120.747 C97.7809 120.064 98.335 119.51 99.0185 119.51C99.702 119.51 100.256 120.064 100.256 120.747C100.256 121.431 99.702 121.985 99.0185 121.985C98.335 121.985 97.7809 121.431 97.7809 120.747Z" fill="#000000" stroke-linecap="round" opacity="1"/>
<path stroke-linejoin="round" stroke-width="2" stroke="#000000" d="M118.294 120.858 C118.294 120.175 118.848 119.621 119.532 119.621C120.215 119.621 120.769 120.175 120.769 120.858C120.769 121.542 120.215 122.096 119.532 122.096C118.848 122.096 118.294 121.542 118.294 120.858Z" fill="#000000" stroke-linecap="round" opacity="1"/>
<path stroke-linejoin="round" stroke-width="2" stroke="#000000" d="M108.331 120.682 C108.331 119.998 108.885 119.444 109.569 119.444C110.252 119.444 110.806 119.998 110.806 120.682C110.806 121.365 110.252 121.919 109.569 121.919C108.885 121.919 108.331 121.365 108.331 120.682Z" fill="#000000" stroke-linecap="round" opacity="1"/>
</g>
<g opacity="1">
<path stroke-linejoin="round" stroke-width="2" stroke="#000000" d="M171.041 108.612 C171.89 116.4 173.467 125.686 180.075 130.642" fill="none" stroke-linecap="round" opacity="1"/>
<path stroke-linejoin="round" stroke-width="2" stroke="#000000" d="M152.974 108.295 C152.83 115.371 154.164 125.621 155.525 131.698" fill="none" stroke-linecap="round" opacity="1"/>
<path stroke-linejoin="round" stroke-width="2" stroke="#000000" d="M135.807 107.74 L135.845 131.981 " fill="none" stroke-linecap="round" opacity="1"/>
</g>
<g opacity="1">
<path stroke-linejoin="round" stroke-width="2" stroke="#000000" d="M48.3417 36.2224 C47.493 28.4339 45.916 19.1488 39.308 14.1928" fill="none" stroke-linecap="round" opacity="1"/>
<path stroke-linejoin="round" stroke-width="2" stroke="#000000" d="M66.4091 36.5393 C66.5527 29.4635 65.2192 19.2139 63.8584 13.136" fill="none" stroke-linecap="round" opacity="1"/>
<path stroke-linejoin="round" stroke-width="2" stroke="#000000" d="M83.5756 37.094 L83.5376 12.8535 " fill="none" stroke-linecap="round" opacity="1"/>
</g>
<g opacity="1">
<path stroke-linejoin="round" stroke-width="2" stroke="#000000" d="M96.6457 24.0872 C96.6457 24.7707 97.1998 25.3248 97.8833 25.3248C98.5668 25.3248 99.1209 24.7707 99.1209 24.0872C99.1209 23.4037 98.5668 22.8496 97.8833 22.8496C97.1998 22.8496 96.6457 23.4037 96.6457 24.0872Z" fill="#000000" stroke-linecap="round" opacity="1"/>
<path stroke-linejoin="round" stroke-width="2" stroke="#000000" d="M117.159 23.9762 C117.159 24.6597 117.713 25.2138 118.396 25.2138C119.08 25.2138 119.634 24.6597 119.634 23.9762C119.634 23.2926 119.08 22.7385 118.396 22.7385C117.713 22.7385 117.159 23.2926 117.159 23.9762Z" fill="#000000" stroke-linecap="round" opacity="1"/>
<path stroke-linejoin="round" stroke-width="2" stroke="#000000" d="M107.196 24.1526 C107.196 24.8361 107.75 25.3902 108.433 25.3902C109.117 25.3902 109.671 24.8361 109.671 24.1526C109.671 23.4691 109.117 22.915 108.433 22.915C107.75 22.915 107.196 23.4691 107.196 24.1526Z" fill="#000000" stroke-linecap="round" opacity="1"/>
</g>
<g opacity="1">
<path stroke-linejoin="round" stroke-width="2" stroke="#000000" d="M169.906 36.2224 C170.755 28.4339 172.332 19.1488 178.94 14.1928" fill="none" stroke-linecap="round" opacity="1"/>
<path stroke-linejoin="round" stroke-width="2" stroke="#000000" d="M151.839 36.5393 C151.695 29.4635 153.029 19.2139 154.389 13.136" fill="none" stroke-linecap="round" opacity="1"/>
<path stroke-linejoin="round" stroke-width="2" stroke="#000000" d="M134.672 37.094 L134.71 12.8535 " fill="none" stroke-linecap="round" opacity="1"/>
</g>
</g>
</svg>
