<?xml version="1.0" encoding="UTF-8"?>
<!DOCTYPE svg PUBLIC "-//W3C//DTD SVG 1.1//EN"
  "http://www.w3.org/Graphics/SVG/1.1/DTD/svg11.dtd">
<svg xmlns:xlink="http://www.w3.org/1999/xlink" width="432pt" viewBox="0,0,432,576" xmlns="http://www.w3.org/2000/svg" version="1.1" height="576pt">
<defs/>
<g id="Layer 1">
<g opacity="1">
<path stroke-linejoin="round" stroke-width="2" stroke="#000000" d="M38.7462 65.8605 L66.288 65.8605 C67.3925 65.8605 68.288 66.7559 68.288 67.8605L68.288 95.4022 C68.288 96.5068 67.3925 97.4022 66.288 97.4022L38.7462 97.4022 C37.6416 97.4022 36.7462 96.5068 36.7462 95.4022L36.7462 67.8605 C36.7462 66.7559 37.6416 65.8605 38.7462 65.8605Z" fill="none" stroke-linecap="round" opacity="1"/>
<text fill="#000000" transform="matrix(1 0 0 1 46.8027 70.8164)" opacity="1">
<tspan y="17" font-size="18" font-family="'Helvetica'" x="0">
T</tspan>
</text>
</g>
<g opacity="1">
<path stroke-linejoin="round" stroke-width="2" stroke="#000000" d="M92.2738 65.4505 L119.816 65.4505 C120.92 65.4505 121.816 66.346 121.816 67.4505L121.816 94.9923 C121.816 96.0968 120.92 96.9923 119.816 96.9923L92.2738 96.9923 C91.1693 96.9923 90.2738 96.0968 90.2738 94.9923L90.2738 67.4505 C90.2738 66.346 91.1693 65.4505 92.2738 65.4505Z" fill="none" stroke-linecap="round" opacity="1"/>
<text fill="#000000" transform="matrix(1 0 0 1 99.6841 70.3904)" opacity="1">
<tspan y="17" font-size="18" font-family="'Helvetica'" x="0">
S</tspan>
</text>
</g>
<g opacity="1">
<path stroke-linejoin="round" stroke-width="2" stroke="#000000" d="M170.226 46.128 L197.768 46.128 C198.872 46.128 199.768 47.0234 199.768 48.128L199.768 75.6697 C199.768 76.7743 198.872 77.6697 197.768 77.6697L170.226 77.6697 C169.122 77.6697 168.226 76.7743 168.226 75.6697L168.226 48.128 C168.226 47.0234 169.122 46.128 170.226 46.128Z" fill="none" stroke-linecap="round" opacity="1"/>
<text fill="#000000" transform="matrix(1 0 0 1 178.283 51.084)" opacity="1">
<tspan y="17" font-size="18" font-family="'Helvetica'" x="0">
T</tspan>
</text>
</g>
<g opacity="1">
<path stroke-linejoin="round" stroke-width="2" stroke="#000000" d="M169.983 98.0774 L197.524 98.0774 C198.629 98.0774 199.524 98.9728 199.524 100.077L199.524 127.619 C199.524 128.724 198.629 129.619 197.524 129.619L169.983 129.619 C168.878 129.619 167.983 128.724 167.983 127.619L167.983 100.077 C167.983 98.9728 168.878 98.0774 169.983 98.0774Z" fill="none" stroke-linecap="round" opacity="1"/>
<text fill="#000000" transform="matrix(1 0 0 1 177.393 103.017)" opacity="1">
<tspan y="17" font-size="18" font-family="'Helvetica'" x="0">
S</tspan>
</text>
</g>
<path stroke-linejoin="round" stroke-width="2" stroke="#000000" d="M258.433 69.5029 L285.975 69.5029 C287.079 69.5029 287.975 70.3983 287.975 71.5029L287.975 99.0446 C287.975 100.149 287.079 101.045 285.975 101.045L258.433 101.045 C257.328 101.045 256.433 100.149 256.433 99.0446L256.433 71.5029 C256.433 70.3983 257.328 69.5029 258.433 69.5029Z" fill="none" stroke-linecap="round" opacity="1"/>
<g opacity="1">
<path stroke-linejoin="round" stroke-width="2" stroke="#000000" d="M340.421 100.083 L340.421 72.5412 C340.421 71.4366 341.317 70.5412 342.421 70.5412L369.963 70.5412 C371.068 70.5412 371.963 71.4366 371.963 72.5412L371.963 100.083 C371.963 101.187 371.068 102.083 369.963 102.083L342.421 102.083 C341.317 102.083 340.421 101.187 340.421 100.083Z" fill="none" stroke-linecap="round" opacity="1"/>
<text fill="#000000" transform="matrix(0 -1 1 0 344.382 87.9247)" opacity="1">
<tspan y="17" font-size="18" font-family="'Helvetica'" x="0">
T</tspan>
</text>
<path stroke-linejoin="round" stroke-width="2" stroke="#000000" d="M355.566 95.2405 C355.522 92.8509 355.533 90.8463 355.47 87.924" fill="#000000" stroke-linecap="round" opacity="1"/>
</g>
<path stroke-linejoin="round" stroke-width="2" stroke="#000000" d="M61.3424 65.5222 C66.821 48.5726 95.5489 53.9405 95.7598 64.9103" fill="none" stroke-linecap="round" opacity="1"/>
<path stroke-linejoin="round" stroke-width="2" stroke="#000000" d="M60.4629 97.9278 C65.742 113.196 96.2866 109.758 97.2501 97.714" fill="none" stroke-linecap="round" opacity="1"/>
<g opacity="1">
<path stroke-linejoin="round" stroke-width="2" stroke="#000000" d="M116.664 97.7577 C117.263 105.245 126.483 116.226 128.365 118.406" fill="none" stroke-linecap="round" opacity="1"/>
<path stroke-linejoin="round" stroke-width="2" stroke="#000000" d="M42.1573 97.7577 C41.5578 105.245 32.3385 116.226 30.4558 118.406" fill="none" stroke-linecap="round" opacity="1"/>
</g>
<path stroke-linejoin="round" stroke-width="2" stroke="#000000" d="M116.664 97.7577 C117.263 105.245 126.483 116.226 128.365 118.406" fill="none" stroke-linecap="round" opacity="1"/>
<g opacity="1">
<path stroke-linejoin="round" stroke-width="2" stroke="#000000" d="M116.937 64.9971 C117.537 57.51 126.756 46.5288 128.639 44.3489" fill="none" stroke-linecap="round" opacity="1"/>
<path stroke-linejoin="round" stroke-width="2" stroke="#000000" d="M42.4307 64.9971 C41.8311 57.51 32.6118 46.5288 30.7291 44.3489" fill="none" stroke-linecap="round" opacity="1"/>
</g>
<path stroke-linejoin="round" stroke-width="2" stroke="#000000" d="M116.937 64.9971 C117.537 57.51 126.756 46.5288 128.639 44.3489" fill="none" stroke-linecap="round" opacity="1"/>
<path stroke-linejoin="round" stroke-width="2" stroke="#000000" d="M174.228 78.63 C177.657 85.1569 177.907 91.7693 174.43 97.5644" fill="none" stroke-linecap="round" opacity="1"/>
<path stroke-linejoin="round" stroke-width="2" stroke="#000000" d="M194.073 77.6174 C190.023 84.5027 190.068 93.6233 193.871 97.9694" fill="none" stroke-linecap="round" opacity="1"/>
<path stroke-linejoin="round" stroke-width="2" stroke="#000000" d="M173.034 129.885 C172.522 135.659 167.931 139.947 164.816 143.582" fill="none" stroke-linecap="round" opacity="1"/>
<path stroke-linejoin="round" stroke-width="2" stroke="#000000" d="M194.95 130.798 C194.954 136.334 199.179 140.854 203.472 143.43" fill="none" stroke-linecap="round" opacity="1"/>
<path stroke-linejoin="round" stroke-width="2" stroke="#000000" d="M192.87 46.1199 C193.789 41.4436 197.385 36.4784 201.151 33.9672" fill="none" stroke-linecap="round" opacity="1"/>
<path stroke-linejoin="round" stroke-width="2" stroke="#000000" d="M174.782 45.8332 C174.45 40.9717 171.863 36.3983 168.164 33.4391" fill="none" stroke-linecap="round" opacity="1"/>
<path stroke-linejoin="round" stroke-width="2" stroke="#000000" d="M261.753 101.118 C261.241 106.892 256.651 111.18 253.535 114.815" fill="none" stroke-linecap="round" opacity="1"/>
<path stroke-linejoin="round" stroke-width="2" stroke="#000000" d="M283.669 102.031 C283.673 107.567 287.898 112.087 292.192 114.663" fill="none" stroke-linecap="round" opacity="1"/>
<g opacity="1">
<path stroke-linejoin="round" stroke-width="2" stroke="#000000" d="M345.221 102.061 C344.709 107.835 340.119 112.124 337.003 115.759" fill="none" stroke-linecap="round" opacity="1"/>
<path stroke-linejoin="round" stroke-width="2" stroke="#000000" d="M367.137 102.66 C367.141 108.196 371.366 112.716 375.66 115.292" fill="none" stroke-linecap="round" opacity="1"/>
</g>
<g opacity="1">
<path stroke-linejoin="round" stroke-width="2" stroke="#000000" d="M261.018 69.3604 C260.506 63.5866 255.915 59.2983 252.799 55.6631" fill="none" stroke-linecap="round" opacity="1"/>
<path stroke-linejoin="round" stroke-width="2" stroke="#000000" d="M282.934 68.7618 C282.938 63.226 287.163 58.7058 291.456 56.1298" fill="none" stroke-linecap="round" opacity="1"/>
</g>
<g opacity="1">
<path stroke-linejoin="round" stroke-width="2" stroke="#000000" d="M344.907 69.6772 C344.395 63.9034 339.804 59.6151 336.688 55.9798" fill="none" stroke-linecap="round" opacity="1"/>
<path stroke-linejoin="round" stroke-width="2" stroke="#000000" d="M366.823 69.0785 C366.826 63.5428 371.052 59.0226 375.345 56.4466" fill="none" stroke-linecap="round" opacity="1"/>
</g>
<g opacity="1">
<path stroke-linejoin="round" stroke-width="2" stroke="#000000" d="M210.219 211.642 L250.017 211.642 C251.613 211.642 252.907 212.936 252.907 214.532L252.907 254.33 C252.907 255.927 251.613 257.22 250.017 257.22L210.219 257.22 C208.622 257.22 207.329 255.927 207.329 254.33L207.329 214.532 C207.329 212.936 208.622 211.642 210.219 211.642Z" fill="none" stroke-linecap="round" opacity="1"/>
<text fill="#000000" transform="matrix(1.44501 0 0 1.44501 221.86 218.804)" opacity="1">
<tspan y="17" font-size="18" font-family="'Helvetica'" x="0">
T</tspan>
</text>
</g>
<g opacity="1">
<path stroke-linejoin="round" stroke-width="2" stroke="#000000" d="M331.82 213.886 L371.618 213.886 C373.214 213.886 374.508 215.18 374.508 216.776L374.508 256.575 C374.508 258.171 373.214 259.465 371.618 259.465L331.82 259.465 C330.224 259.465 328.93 258.171 328.93 256.575L328.93 216.776 C328.93 215.18 330.224 213.886 331.82 213.886Z" fill="none" stroke-linecap="round" opacity="1"/>
<text fill="#000000" transform="matrix(1.44501 0 0 1.44501 343.462 221.047)" opacity="1">
<tspan y="17" font-size="18" font-family="'Helvetica'" x="0">
T</tspan>
</text>
</g>
<path stroke-linejoin="round" stroke-width="2" stroke="#000000" d="M212.864 211.475 C213.114 191.437 244.782 189.978 247.406 210.968" fill="none" stroke-linecap="round" opacity="1"/>
<path stroke-linejoin="round" stroke-width="2" stroke="#000000" d="M213.61 257.701 C213.859 277.739 245.527 279.197 248.151 258.208" fill="none" stroke-linecap="round" opacity="1"/>
<path stroke-linejoin="round" stroke-width="2" stroke="#000000" d="M335.198 213.314 C333.671 204.154 323.686 199.436 316.434 205.177C302.697 216.052 300.283 248.92 313.268 261.899C320.848 269.475 333.401 272.159 335.621 259.807" fill="none" stroke-linecap="round" opacity="1"/>
<path stroke-linejoin="round" stroke-width="2" stroke="#000000" d="M368.048 213.468 C369.574 204.309 379.559 199.59 386.812 205.332C400.549 216.207 400.301 244.847 389.977 262.054C384.464 271.243 369.845 272.313 367.624 259.962" fill="none" stroke-linecap="round" opacity="1"/>
<path stroke-linejoin="round" stroke-width="2" stroke="#000000" d="M190.12 366.703 C196.303 378.194 221.472 377.782 227.902 367.066" fill="none" stroke-linecap="round" opacity="1"/>
<path stroke-linejoin="round" stroke-width="2" stroke="#000000" d="M189.63 398.842 C196.126 389.889 219.8 389.855 226.849 398.667" fill="none" stroke-linecap="round" opacity="1"/>
<path stroke-linejoin="round" stroke-width="2" stroke="#000000" d="M227.433 449.515 C215.943 455.699 216.355 480.868 227.071 487.298" fill="none" stroke-linecap="round" opacity="1"/>
<path stroke-linejoin="round" stroke-width="2" stroke="#000000" d="M195.295 449.026 C204.248 455.522 204.281 479.196 195.47 486.245" fill="none" stroke-linecap="round" opacity="1"/>
<path stroke-linejoin="round" stroke-width="2" stroke="#000000" d="M263.763 367.587 C276.055 375.962 288.171 386.885 298.93 397.644" fill="none" stroke-linecap="round" opacity="1"/>
<path stroke-linejoin="round" stroke-width="2" stroke="#000000" d="M299.698 365.224 C295.661 369.133 290.896 372.983 287.264 377.134" fill="none" stroke-linecap="round" opacity="1"/>
<path stroke-linejoin="round" stroke-width="2" stroke="#000000" d="M277.579 387.342 C272.97 391.316 268.233 395.76 263.576 399.383" fill="none" stroke-linecap="round" opacity="1"/>
<path stroke-linejoin="round" stroke-width="2" stroke="#000000" d="M263.777 452.852 C276.069 461.227 288.185 472.15 298.943 482.909" fill="none" stroke-linecap="round" opacity="1"/>
<path stroke-linejoin="round" stroke-width="2" stroke="#000000" d="M299.711 450.489 C295.674 454.398 290.91 458.248 287.278 462.399" fill="none" stroke-linecap="round" opacity="1"/>
<path stroke-linejoin="round" stroke-width="2" stroke="#000000" d="M277.593 472.607 C272.984 476.581 268.247 481.026 263.589 484.648" fill="none" stroke-linecap="round" opacity="1"/>
<path stroke-linejoin="round" stroke-width="2" stroke="#000000" d="M349.358 443.14 C371.527 449.373 377.725 463.841 363.493 469.972" fill="none" stroke-linecap="round" opacity="1"/>
<path stroke-linejoin="round" stroke-width="2" stroke="#000000" d="M374.992 440.265 C372.841 442.057 368.9 443.847 366.367 445.535" fill="none" stroke-linecap="round" opacity="1"/>
<path stroke-linejoin="round" stroke-width="2" stroke="#000000" d="M358.462 454.16 C343.748 470.175 367.834 479.598 371.159 484.585" fill="none" stroke-linecap="round" opacity="1"/>
<path stroke-linejoin="round" stroke-width="2" stroke="#000000" d="M354.398 476.311 C350.782 477.832 349.022 481.247 348.402 484.962" fill="none" stroke-linecap="round" opacity="1"/>
<path stroke-linejoin="round" stroke-width="2" stroke="#000000" d="M165.12 366.275 C152.828 374.65 140.712 385.573 129.953 396.332" fill="none" stroke-linecap="round" opacity="1"/>
<path stroke-linejoin="round" stroke-width="2" stroke="#000000" d="M129.185 363.912 C133.222 367.821 137.987 371.671 141.619 375.822" fill="none" stroke-linecap="round" opacity="1"/>
<path stroke-linejoin="round" stroke-width="2" stroke="#000000" d="M151.303 386.03 C155.913 390.004 160.65 394.448 165.307 398.071" fill="none" stroke-linecap="round" opacity="1"/>
<path stroke-linejoin="round" stroke-width="2" stroke="#000000" d="M169.128 451.54 C156.836 459.915 144.72 470.838 133.962 481.597" fill="none" stroke-linecap="round" opacity="1"/>
<path stroke-linejoin="round" stroke-width="2" stroke="#000000" d="M133.194 449.177 C137.231 453.086 141.995 456.936 145.627 461.087" fill="none" stroke-linecap="round" opacity="1"/>
<path stroke-linejoin="round" stroke-width="2" stroke="#000000" d="M155.312 471.296 C159.921 475.269 164.658 479.714 169.316 483.336" fill="none" stroke-linecap="round" opacity="1"/>
<path stroke-linejoin="round" stroke-width="2" stroke="#000000" d="M83.5469 441.828 C61.3774 448.061 55.1799 462.529 69.4123 468.66" fill="none" stroke-linecap="round" opacity="1"/>
<path stroke-linejoin="round" stroke-width="2" stroke="#000000" d="M57.913 438.953 C60.0641 440.745 64.0048 442.535 66.5375 444.223" fill="none" stroke-linecap="round" opacity="1"/>
<path stroke-linejoin="round" stroke-width="2" stroke="#000000" d="M74.4433 452.848 C89.1573 468.863 65.0709 478.286 61.7461 483.273" fill="none" stroke-linecap="round" opacity="1"/>
<path stroke-linejoin="round" stroke-width="2" stroke="#000000" d="M78.5066 474.999 C82.123 476.52 83.8832 479.935 84.5024 483.65" fill="none" stroke-linecap="round" opacity="1"/>
<path stroke-linejoin="round" stroke-width="2" stroke="#000000" d="M340.339 368.566 C353.793 369.089 358.572 412.635 371.583 388.074" fill="none" stroke-linecap="round" opacity="1"/>
<path stroke-linejoin="round" stroke-width="2" stroke="#000000" d="M357.245 380.639 C371.012 373.19 378.221 393.783 390.037 393.252" fill="none" stroke-linecap="round" opacity="1"/>
<path stroke-linejoin="round" stroke-width="2" stroke="#000000" d="M350.075 388.074 C344.367 394.977 343.715 394.931 338.127 396.172" fill="none" stroke-linecap="round" opacity="1"/>
<path stroke-linejoin="round" stroke-width="2" stroke="#000000" d="M376.919 379.461 C378.687 374.003 384.017 370.547 389 368.554" fill="none" stroke-linecap="round" opacity="1"/>
<path stroke-linejoin="round" stroke-width="2" stroke="#000000" d="M97.5257 364.345 C84.0722 364.868 79.2927 408.414 66.2819 383.853" fill="none" stroke-linecap="round" opacity="1"/>
<path stroke-linejoin="round" stroke-width="2" stroke="#000000" d="M80.6203 376.418 C66.8532 368.969 59.6437 389.562 47.8278 389.031" fill="none" stroke-linecap="round" opacity="1"/>
<path stroke-linejoin="round" stroke-width="2" stroke="#000000" d="M87.7895 383.853 C93.4983 390.757 94.1501 390.71 99.7382 391.952" fill="none" stroke-linecap="round" opacity="1"/>
<path stroke-linejoin="round" stroke-width="2" stroke="#000000" d="M60.9456 375.241 C59.1779 369.782 53.8479 366.326 48.8652 364.333" fill="none" stroke-linecap="round" opacity="1"/>
<g opacity="1">
<path stroke-linejoin="round" stroke-width="2" stroke="#000000" d="M53.0339 215.461 L80.5757 215.461 C81.6803 215.461 82.5757 216.357 82.5757 217.461L82.5757 245.003 C82.5757 246.108 81.6803 247.003 80.5757 247.003L53.0339 247.003 C51.9294 247.003 51.0339 246.108 51.0339 245.003L51.0339 217.461 C51.0339 216.357 51.9294 215.461 53.0339 215.461Z" fill="none" stroke-linecap="round" opacity="1"/>
<text fill="#000000" transform="matrix(1 0 0 1 61.0904 220.417)" opacity="1">
<tspan y="17" font-size="18" font-family="'Helvetica'" x="0">
T</tspan>
</text>
</g>
<path stroke-linejoin="round" stroke-width="2" stroke="#000000" d="M85.38 215.524 L112.922 215.524 C114.026 215.524 114.922 216.419 114.922 217.524L114.922 245.066 C114.922 246.17 114.026 247.066 112.922 247.066L85.38 247.066 C84.2754 247.066 83.38 246.17 83.38 245.066L83.38 217.524 C83.38 216.419 84.2754 215.524 85.38 215.524Z" fill="none" stroke-linecap="round" opacity="1"/>
<text fill="#000000" transform="matrix(1 0 0 1 92.7903 220.464)" opacity="1">
<tspan y="17" font-size="18" font-family="'Helvetica'" x="0">
S</tspan>
</text>
<path stroke-linejoin="round" stroke-width="2" stroke="#000000" d="M109.77 247.831 C110.37 255.318 119.589 266.299 121.472 268.479" fill="none" stroke-linecap="round" opacity="1"/>
<path stroke-linejoin="round" stroke-width="2" stroke="#000000" d="M56.4451 247.359 C55.8456 254.846 46.6263 265.827 44.7436 268.007" fill="none" stroke-linecap="round" opacity="1"/>
<path stroke-linejoin="round" stroke-width="2" stroke="#000000" d="M109.77 247.831 C110.37 255.318 119.589 266.299 121.472 268.479" fill="none" stroke-linecap="round" opacity="1"/>
<path stroke-linejoin="round" stroke-width="2" stroke="#000000" d="M110.043 215.07 C110.643 207.583 119.862 196.602 121.745 194.422" fill="none" stroke-linecap="round" opacity="1"/>
<path stroke-linejoin="round" stroke-width="2" stroke="#000000" d="M56.7184 214.598 C56.1189 207.111 46.8996 196.13 45.0169 193.95" fill="none" stroke-linecap="round" opacity="1"/>
<path stroke-linejoin="round" stroke-width="2" stroke="#000000" d="M110.043 215.07 C110.643 207.583 119.862 196.602 121.745 194.422" fill="none" stroke-linecap="round" opacity="1"/>
<path stroke-linejoin="round" stroke-width="2" stroke="#000000" d="M74.8935 214.527 C74.4928 208.159 74.5897 200.71 72.4548 195.017" fill="none" stroke-linecap="round" opacity="1"/>
<path stroke-linejoin="round" stroke-width="2" stroke="#000000" d="M91.2267 215.101 C91.7083 208.019 92.5718 200.727 94.0958 193.869" fill="none" stroke-linecap="round" opacity="1"/>
<path stroke-linejoin="round" stroke-width="2" stroke="#000000" d="M76.334 247.365 C76.5565 254.366 74.5859 261.746 72.119 267.913" fill="none" stroke-linecap="round" opacity="1"/>
<path stroke-linejoin="round" stroke-width="2" stroke="#000000" d="M90.5598 247.277 C89.6748 254.347 92.6887 260.849 94.4235 267.21" fill="none" stroke-linecap="round" opacity="1"/>
</g>
</svg>
